<svg width="28" height="28" viewBox="0 0 28 28" fill="none" xmlns="http://www.w3.org/2000/svg">
<path d="M14.0002 16.3333C16.5738 16.3333 18.6668 14.2403 18.6668 11.6667C18.6668 9.093 16.5738 7 14.0002 7C11.4265 7 9.3335 9.093 9.3335 11.6667C9.3335 14.2403 11.4265 16.3333 14.0002 16.3333ZM14.0002 9.33333C15.287 9.33333 16.3335 10.3798 16.3335 11.6667C16.3335 12.9535 15.287 14 14.0002 14C12.7133 14 11.6668 12.9535 11.6668 11.6667C11.6668 10.3798 12.7133 9.33333 14.0002 9.33333Z" fill="#F89608"/>
<path d="M13.3233 25.4496C13.5207 25.5906 13.7573 25.6664 13.9999 25.6664C14.2426 25.6664 14.4792 25.5906 14.6766 25.4496C15.0313 25.1988 23.3671 19.1799 23.3333 11.6666C23.3333 6.52042 19.1461 2.33325 13.9999 2.33325C8.85377 2.33325 4.66661 6.52042 4.66661 11.6608C4.63277 19.1799 12.9686 25.1988 13.3233 25.4496ZM13.9999 4.66659C17.8604 4.66659 20.9999 7.80609 20.9999 11.6724C21.0244 16.8501 15.8806 21.4993 13.9999 23.0241C12.1204 21.4981 6.97544 16.8478 6.99994 11.6666C6.99994 7.80609 10.1394 4.66659 13.9999 4.66659Z" fill="#F89608"/>
</svg>
