<svg width="244" height="57" viewBox="0 0 244 57" fill="none" xmlns="http://www.w3.org/2000/svg">
<path d="M0 35.75V0.25H9.75V35.75H0Z" fill="black"/>
<path d="M25.6191 18.3V35.75H15.8691V0.25H23.4691L37.7191 18.3V0.25H47.4691V35.75H39.7191L25.6191 18.3Z" fill="black"/>
<path d="M81.2145 8.75H71.0145V35.75H61.2645V8.75H51.0145V0.25H81.2145V8.75Z" fill="black"/>
<path d="M110.066 27.25V35.75H84.7656V0.25H109.616V8.75H94.5156V13.75H107.416V21.65H94.5156V27.25H110.066Z" fill="black"/>
<path d="M151.025 35.75V0.25H167.325C169.059 0.25 170.659 0.6 172.125 1.3C173.592 2 174.859 2.95 175.925 4.15C176.992 5.31667 177.809 6.63333 178.375 8.1C178.975 9.56667 179.275 11.05 179.275 12.55C179.275 13.9167 179.075 15.2333 178.675 16.5C178.275 17.7667 177.692 18.9333 176.925 20C176.159 21.0333 175.242 21.9333 174.175 22.7L181.675 35.75H170.975L164.725 24.85H160.775V35.75H151.025ZM160.775 16.35H166.925C167.325 16.35 167.709 16.2 168.075 15.9C168.442 15.6 168.742 15.1667 168.975 14.6C169.242 14.0333 169.375 13.35 169.375 12.55C169.375 11.7167 169.225 11.0333 168.925 10.5C168.659 9.93333 168.309 9.5 167.875 9.2C167.475 8.9 167.075 8.75 166.675 8.75H160.775V16.35Z" fill="black"/>
<path d="M192.966 0.25H203.866L215.166 35.75H205.266L203.116 28.8H193.666L191.566 35.75H181.616L192.966 0.25ZM201.566 22.3L198.416 9.8L195.116 22.3H201.566Z" fill="black"/>
<path d="M218.115 35.75V0.25H227.865V27.25H243.965V35.75H218.115Z" fill="black"/>
<path d="M9.97819 45V54.8H8.99819V46.484L5.56819 52.224H5.42819L1.99819 46.484V54.8H1.01819V45H2.23619L5.49819 50.46L8.76019 45H9.97819Z" fill="black" fill-opacity="0.5"/>
<path d="M18.0955 47.8H19.0195V54.8H18.0955V53.428C17.4515 54.4547 16.5088 54.968 15.2675 54.968C14.2688 54.968 13.4148 54.6133 12.7055 53.904C12.0055 53.1947 11.6555 52.3267 11.6555 51.3C11.6555 50.2733 12.0055 49.4053 12.7055 48.696C13.4148 47.9867 14.2688 47.632 15.2675 47.632C16.5088 47.632 17.4515 48.1453 18.0955 49.172V47.8ZM13.3775 53.274C13.9095 53.806 14.5628 54.072 15.3375 54.072C16.1121 54.072 16.7655 53.806 17.2975 53.274C17.8295 52.7327 18.0955 52.0747 18.0955 51.3C18.0955 50.5253 17.8295 49.872 17.2975 49.34C16.7655 48.7987 16.1121 48.528 15.3375 48.528C14.5628 48.528 13.9095 48.7987 13.3775 49.34C12.8455 49.872 12.5795 50.5253 12.5795 51.3C12.5795 52.0747 12.8455 52.7327 13.3775 53.274Z" fill="black" fill-opacity="0.5"/>
<path d="M25.4558 47.8V48.696H21.8998V54.8H20.9758V47.8H25.4558Z" fill="black" fill-opacity="0.5"/>
<path d="M32.3279 47.8H33.2519V54.8H32.3279V53.428C31.6839 54.4547 30.7412 54.968 29.4999 54.968C28.5012 54.968 27.6472 54.6133 26.9379 53.904C26.2379 53.1947 25.8879 52.3267 25.8879 51.3C25.8879 50.2733 26.2379 49.4053 26.9379 48.696C27.6472 47.9867 28.5012 47.632 29.4999 47.632C30.7412 47.632 31.6839 48.1453 32.3279 49.172V47.8ZM27.6099 53.274C28.1419 53.806 28.7952 54.072 29.5699 54.072C30.3445 54.072 30.9979 53.806 31.5299 53.274C32.0619 52.7327 32.3279 52.0747 32.3279 51.3C32.3279 50.5253 32.0619 49.872 31.5299 49.34C30.9979 48.7987 30.3445 48.528 29.5699 48.528C28.7952 48.528 28.1419 48.7987 27.6099 49.34C27.0779 49.872 26.8119 50.5253 26.8119 51.3C26.8119 52.0747 27.0779 52.7327 27.6099 53.274Z" fill="black" fill-opacity="0.5"/>
<path d="M38.8203 51.202C39.6323 51.51 40.0383 52.07 40.0383 52.882C40.0383 53.4607 39.8096 53.9553 39.3523 54.366C38.9043 54.7673 38.2603 54.968 37.4203 54.968C36.0109 54.968 35.0869 54.408 34.6483 53.288L35.4323 52.826C35.7216 53.6567 36.3843 54.072 37.4203 54.072C37.9616 54.072 38.3769 53.9553 38.6663 53.722C38.9649 53.4887 39.1143 53.19 39.1143 52.826C39.1143 52.4993 38.9929 52.2333 38.7503 52.028C38.5076 51.8227 38.1809 51.72 37.7703 51.72H36.7483V50.824H37.4903C37.8916 50.824 38.2043 50.726 38.4283 50.53C38.6616 50.3247 38.7783 50.0447 38.7783 49.69C38.7783 49.354 38.6429 49.0787 38.3723 48.864C38.1016 48.64 37.7376 48.528 37.2803 48.528C36.4029 48.528 35.8196 48.878 35.5303 49.578L34.7603 49.13C35.2269 48.1313 36.0669 47.632 37.2803 47.632C38.0176 47.632 38.6056 47.828 39.0443 48.22C39.4829 48.6027 39.7023 49.074 39.7023 49.634C39.7023 50.3527 39.4083 50.8753 38.8203 51.202Z" fill="black" fill-opacity="0.5"/>
<path d="M46.5386 47.8H47.3226V54.8H46.3986V49.41L42.2266 54.8H41.4426V47.8H42.3666V53.19L46.5386 47.8Z" fill="black" fill-opacity="0.5"/>
<path d="M54.2326 47.8H55.1566V54.8H54.2326V51.748H50.2006V54.8H49.2766V47.8H50.2006V50.852H54.2326V47.8Z" fill="black" fill-opacity="0.5"/>
<path d="M64.2226 51.202C65.0346 51.51 65.4406 52.07 65.4406 52.882C65.4406 53.4607 65.2119 53.9553 64.7546 54.366C64.3066 54.7673 63.6626 54.968 62.8226 54.968C61.4133 54.968 60.4893 54.408 60.0506 53.288L60.8346 52.826C61.1239 53.6567 61.7866 54.072 62.8226 54.072C63.3639 54.072 63.7793 53.9553 64.0686 53.722C64.3673 53.4887 64.5166 53.19 64.5166 52.826C64.5166 52.4993 64.3953 52.2333 64.1526 52.028C63.91 51.8227 63.5833 51.72 63.1726 51.72H62.1506V50.824H62.8926C63.2939 50.824 63.6066 50.726 63.8306 50.53C64.0639 50.3247 64.1806 50.0447 64.1806 49.69C64.1806 49.354 64.0453 49.0787 63.7746 48.864C63.5039 48.64 63.1399 48.528 62.6826 48.528C61.8053 48.528 61.2219 48.878 60.9326 49.578L60.1626 49.13C60.6293 48.1313 61.4693 47.632 62.6826 47.632C63.4199 47.632 64.0079 47.828 64.4466 48.22C64.8853 48.6027 65.1046 49.074 65.1046 49.634C65.1046 50.3527 64.8106 50.8753 64.2226 51.202Z" fill="black" fill-opacity="0.5"/>
<path d="M72.865 47.8H73.789V54.8H72.865V53.428C72.221 54.4547 71.2783 54.968 70.037 54.968C69.0383 54.968 68.1843 54.6133 67.475 53.904C66.775 53.1947 66.425 52.3267 66.425 51.3C66.425 50.2733 66.775 49.4053 67.475 48.696C68.1843 47.9867 69.0383 47.632 70.037 47.632C71.2783 47.632 72.221 48.1453 72.865 49.172V47.8ZM68.147 53.274C68.679 53.806 69.3323 54.072 70.107 54.072C70.8816 54.072 71.535 53.806 72.067 53.274C72.599 52.7327 72.865 52.0747 72.865 51.3C72.865 50.5253 72.599 49.872 72.067 49.34C71.535 48.7987 70.8816 48.528 70.107 48.528C69.3323 48.528 68.679 48.7987 68.147 49.34C67.615 49.872 67.349 50.5253 67.349 51.3C67.349 52.0747 67.615 52.7327 68.147 53.274Z" fill="black" fill-opacity="0.5"/>
<path d="M81.6254 47.8V54.8H80.7014V48.696H76.6694V54.8H75.7454V47.8H81.6254Z" fill="black" fill-opacity="0.5"/>
<path d="M88.1154 47.8H89.0394V54.8H88.1154V52.14C87.574 52.42 86.9067 52.56 86.1134 52.56C85.1987 52.56 84.4987 52.35 84.0134 51.93C83.5374 51.5007 83.2994 50.8707 83.2994 50.04V47.8H84.2234V50.04C84.2234 50.628 84.3774 51.0527 84.6854 51.314C84.9934 51.566 85.46 51.692 86.0854 51.692C86.8134 51.692 87.49 51.5567 88.1154 51.286V47.8Z" fill="black" fill-opacity="0.5"/>
<path d="M97.0232 47.8H97.9472V54.8H97.0232V53.428C96.3792 54.4547 95.4365 54.968 94.1952 54.968C93.1965 54.968 92.3425 54.6133 91.6332 53.904C90.9332 53.1947 90.5832 52.3267 90.5832 51.3C90.5832 50.2733 90.9332 49.4053 91.6332 48.696C92.3425 47.9867 93.1965 47.632 94.1952 47.632C95.4365 47.632 96.3792 48.1453 97.0232 49.172V47.8ZM92.3052 53.274C92.8372 53.806 93.4905 54.072 94.2652 54.072C95.0398 54.072 95.6932 53.806 96.2252 53.274C96.7572 52.7327 97.0232 52.0747 97.0232 51.3C97.0232 50.5253 96.7572 49.872 96.2252 49.34C95.6932 48.7987 95.0398 48.528 94.2652 48.528C93.4905 48.528 92.8372 48.7987 92.3052 49.34C91.7732 49.872 91.5072 50.5253 91.5072 51.3C91.5072 52.0747 91.7732 52.7327 92.3052 53.274Z" fill="black" fill-opacity="0.5"/>
<path d="M103.166 54.968C102.111 54.968 101.234 54.618 100.534 53.918C99.8336 53.2087 99.4836 52.336 99.4836 51.3C99.4836 50.264 99.8336 49.396 100.534 48.696C101.234 47.9867 102.111 47.632 103.166 47.632C103.856 47.632 104.477 47.8 105.028 48.136C105.578 48.4627 105.98 48.906 106.232 49.466L105.476 49.9C105.289 49.48 104.986 49.1487 104.566 48.906C104.155 48.654 103.688 48.528 103.166 48.528C102.391 48.528 101.738 48.7987 101.206 49.34C100.674 49.872 100.408 50.5253 100.408 51.3C100.408 52.0747 100.674 52.7327 101.206 53.274C101.738 53.806 102.391 54.072 103.166 54.072C103.688 54.072 104.155 53.9507 104.566 53.708C104.976 53.456 105.298 53.12 105.532 52.7L106.302 53.148C106.012 53.708 105.588 54.1513 105.028 54.478C104.468 54.8047 103.847 54.968 103.166 54.968Z" fill="black" fill-opacity="0.5"/>
<path d="M112.531 47.8V48.696H110.053V54.8H109.129V48.696H106.651V47.8H112.531Z" fill="black" fill-opacity="0.5"/>
<path d="M116.618 47.632C117.654 47.632 118.489 48.0007 119.124 48.738C119.768 49.466 120.09 50.3293 120.09 51.328C120.09 51.4307 120.081 51.5753 120.062 51.762H113.916C114.009 52.4713 114.308 53.036 114.812 53.456C115.325 53.8667 115.955 54.072 116.702 54.072C117.234 54.072 117.691 53.9647 118.074 53.75C118.466 53.526 118.76 53.2367 118.956 52.882L119.768 53.358C119.46 53.8527 119.04 54.2447 118.508 54.534C117.976 54.8233 117.369 54.968 116.688 54.968C115.587 54.968 114.691 54.6227 114 53.932C113.309 53.2413 112.964 52.364 112.964 51.3C112.964 50.2547 113.305 49.382 113.986 48.682C114.667 47.982 115.545 47.632 116.618 47.632ZM116.618 48.528C115.89 48.528 115.279 48.7473 114.784 49.186C114.299 49.6153 114.009 50.1753 113.916 50.866H119.138C119.045 50.1287 118.76 49.5547 118.284 49.144C117.808 48.7333 117.253 48.528 116.618 48.528Z" fill="black" fill-opacity="0.5"/>
<path d="M122.68 46.68V45.868H126.32V46.68H122.68ZM126.656 47.8H127.44V54.8H126.516V49.41L122.344 54.8H121.56V47.8H122.484V53.19L126.656 47.8Z" fill="black" fill-opacity="0.5"/>
<path d="M138.774 53.904H139.754V56.676H138.83V54.8H133.118V56.676H132.194V53.904H133.048C133.524 53.2787 133.762 52.3967 133.762 51.258V47.8H138.774V53.904ZM134.168 53.904H137.85V48.696H134.686V51.258C134.686 52.3313 134.513 53.2133 134.168 53.904Z" fill="black" fill-opacity="0.5"/>
<path d="M146.892 47.8V54.8H145.968V48.696H142.804V51.818C142.804 52.9847 142.58 53.7873 142.132 54.226C141.693 54.6647 141.086 54.856 140.312 54.8V53.932C140.844 53.988 141.236 53.862 141.488 53.554C141.749 53.246 141.88 52.6673 141.88 51.818V47.8H146.892Z" fill="black" fill-opacity="0.5"/>
<path d="M153.889 47.8V54.8H152.965V52.112H151.761L149.605 54.8H148.429L150.641 52.084C150.081 52 149.619 51.7667 149.255 51.384C148.891 51.0013 148.709 50.53 148.709 49.97C148.709 49.3353 148.933 48.8173 149.381 48.416C149.838 48.0053 150.394 47.8 151.047 47.8H153.889ZM151.047 51.244H152.965V48.696H151.047C150.655 48.696 150.319 48.8127 150.039 49.046C149.768 49.2793 149.633 49.5873 149.633 49.97C149.633 50.3527 149.768 50.6607 150.039 50.894C150.319 51.1273 150.655 51.244 151.047 51.244Z" fill="black" fill-opacity="0.5"/>
<path d="M162.611 54.968C161.556 54.968 160.679 54.618 159.979 53.918C159.279 53.2087 158.929 52.336 158.929 51.3C158.929 50.264 159.279 49.396 159.979 48.696C160.679 47.9867 161.556 47.632 162.611 47.632C163.302 47.632 163.922 47.8 164.473 48.136C165.024 48.4627 165.425 48.906 165.677 49.466L164.921 49.9C164.734 49.48 164.431 49.1487 164.011 48.906C163.6 48.654 163.134 48.528 162.611 48.528C161.836 48.528 161.183 48.7987 160.651 49.34C160.119 49.872 159.853 50.5253 159.853 51.3C159.853 52.0747 160.119 52.7327 160.651 53.274C161.183 53.806 161.836 54.072 162.611 54.072C163.134 54.072 163.6 53.9507 164.011 53.708C164.422 53.456 164.744 53.12 164.977 52.7L165.747 53.148C165.458 53.708 165.033 54.1513 164.473 54.478C163.913 54.8047 163.292 54.968 162.611 54.968Z" fill="black" fill-opacity="0.5"/>
<path d="M172.954 47.8V54.8H172.03V48.696H167.998V54.8H167.074V47.8H172.954Z" fill="black" fill-opacity="0.5"/>
<path d="M178.141 47.632C179.177 47.632 180.013 48.0007 180.647 48.738C181.291 49.466 181.613 50.3293 181.613 51.328C181.613 51.4307 181.604 51.5753 181.585 51.762H175.439C175.533 52.4713 175.831 53.036 176.335 53.456C176.849 53.8667 177.479 54.072 178.225 54.072C178.757 54.072 179.215 53.9647 179.597 53.75C179.989 53.526 180.283 53.2367 180.479 52.882L181.291 53.358C180.983 53.8527 180.563 54.2447 180.031 54.534C179.499 54.8233 178.893 54.968 178.211 54.968C177.11 54.968 176.214 54.6227 175.523 53.932C174.833 53.2413 174.487 52.364 174.487 51.3C174.487 50.2547 174.828 49.382 175.509 48.682C176.191 47.982 177.068 47.632 178.141 47.632ZM178.141 48.528C177.413 48.528 176.802 48.7473 176.307 49.186C175.822 49.6153 175.533 50.1753 175.439 50.866H180.661C180.568 50.1287 180.283 49.5547 179.807 49.144C179.331 48.7333 178.776 48.528 178.141 48.528Z" fill="black" fill-opacity="0.5"/>
<path d="M188.823 53.904H189.943V56.676H189.019V54.8H183.083V47.8H184.007V53.904H187.899V47.8H188.823V53.904Z" fill="black" fill-opacity="0.5"/>
<path d="M192.517 54.716C192.368 54.8653 192.186 54.94 191.971 54.94C191.756 54.94 191.574 54.8653 191.425 54.716C191.276 54.5667 191.201 54.3847 191.201 54.17C191.201 53.9553 191.276 53.7733 191.425 53.624C191.574 53.4747 191.756 53.4 191.971 53.4C192.186 53.4 192.368 53.4747 192.517 53.624C192.666 53.7733 192.741 53.9553 192.741 54.17C192.741 54.3847 192.666 54.5667 192.517 54.716Z" fill="black" fill-opacity="0.5"/>
<path d="M199.608 47.8V48.696H197.13V54.8H196.206V48.696H193.728V47.8H199.608Z" fill="black" fill-opacity="0.5"/>
<path d="M203.694 47.632C204.73 47.632 205.566 48.0007 206.2 48.738C206.844 49.466 207.166 50.3293 207.166 51.328C207.166 51.4307 207.157 51.5753 207.138 51.762H200.992C201.086 52.4713 201.384 53.036 201.888 53.456C202.402 53.8667 203.032 54.072 203.778 54.072C204.31 54.072 204.768 53.9647 205.15 53.75C205.542 53.526 205.836 53.2367 206.032 52.882L206.844 53.358C206.536 53.8527 206.116 54.2447 205.584 54.534C205.052 54.8233 204.446 54.968 203.764 54.968C202.663 54.968 201.767 54.6227 201.076 53.932C200.386 53.2413 200.04 52.364 200.04 51.3C200.04 50.2547 200.381 49.382 201.062 48.682C201.744 47.982 202.621 47.632 203.694 47.632ZM203.694 48.528C202.966 48.528 202.355 48.7473 201.86 49.186C201.375 49.6153 201.086 50.1753 200.992 50.866H206.214C206.121 50.1287 205.836 49.5547 205.36 49.144C204.884 48.7333 204.329 48.528 203.694 48.528Z" fill="black" fill-opacity="0.5"/>
<path d="M214.243 54.8H213.137L210.953 51.916L208.769 54.8H207.663L210.407 51.174L207.845 47.8H208.951L210.953 50.446L212.955 47.8H214.061L211.513 51.174L214.243 54.8Z" fill="black" fill-opacity="0.5"/>
<path d="M220.455 47.8H221.379V54.8H220.455V51.748H216.423V54.8H215.499V47.8H216.423V50.852H220.455V47.8Z" fill="black" fill-opacity="0.5"/>
<path d="M228.429 47.8H229.213V54.8H228.289V49.41L224.117 54.8H223.333V47.8H224.257V53.19L228.429 47.8Z" fill="black" fill-opacity="0.5"/>
<path d="M236.823 54.8H235.591L232.091 51.426V54.8H231.167V47.8H232.091V50.894L235.423 47.8H236.683L233.071 51.16L236.823 54.8Z" fill="black" fill-opacity="0.5"/>
<path d="M243.181 47.8H243.965V54.8H243.041V49.41L238.869 54.8H238.085V47.8H239.009V53.19L243.181 47.8Z" fill="black" fill-opacity="0.5"/>
<path fill-rule="evenodd" clip-rule="evenodd" d="M122.812 34.8C124.912 35.6 127.112 36 129.412 36C132.696 36 135.613 34.9293 138.163 32.7879V35.75H146.212V16.85H131.613V23.85H137.778C136.848 24.8134 135.843 25.5967 134.762 26.2C133.329 26.9667 131.829 27.35 130.262 27.35C129.029 27.35 127.912 27.1333 126.912 26.7C125.912 26.2333 125.046 25.6 124.312 24.8C123.613 23.9667 123.062 22.9833 122.662 21.85C122.262 20.7167 122.062 19.45 122.062 18.05C122.062 16.6833 122.246 15.4333 122.612 14.3C123.012 13.1333 123.562 12.1333 124.262 11.3C124.996 10.4667 125.846 9.81667 126.812 9.35C127.779 8.88333 128.846 8.65 130.012 8.65C131.579 8.65 133.062 9.08333 134.462 9.95C135.862 10.7833 136.913 11.9 137.613 13.3L144.863 7.75C143.596 5.35 141.663 3.46667 139.062 2.1C136.462 0.700001 133.562 0 130.363 0C127.796 0 125.412 0.45 123.213 1.35C121.013 2.25 119.079 3.51667 117.412 5.15C115.779 6.75 114.496 8.61667 113.562 10.75C112.629 12.8833 112.162 15.2 112.162 17.7C112.162 20.6 112.612 23.1833 113.512 25.45C114.446 27.6833 115.713 29.6 117.312 31.2C118.912 32.7667 120.746 33.9667 122.812 34.8ZM138.663 22.85C138.376 23.2025 138.081 23.5358 137.778 23.85H138.163V32.7879C138.171 32.7803 138.18 32.7728 138.189 32.7652C138.349 32.631 138.506 32.4926 138.663 32.35V22.85Z" fill="black"/>
<path d="M138.663 32.35V22.85C138.376 23.2025 138.081 23.5358 137.778 23.85H138.163V32.7879L138.189 32.7652C138.349 32.631 138.506 32.4926 138.663 32.35Z" fill="black"/>
</svg>
