<svg width="22" height="22" viewBox="0 0 22 22" fill="none" xmlns="http://www.w3.org/2000/svg">
<path d="M4.72333 9.58833C6.40333 12.89 9.11 15.585 12.4117 17.2767L14.9783 14.71C15.2933 14.395 15.76 14.29 16.1683 14.43C17.475 14.8617 18.8867 15.095 20.3333 15.095C20.975 15.095 21.5 15.62 21.5 16.2617V20.3333C21.5 20.975 20.975 21.5 20.3333 21.5C9.37833 21.5 0.5 12.6217 0.5 1.66667C0.5 1.025 1.025 0.5 1.66667 0.5H5.75C6.39167 0.5 6.91667 1.025 6.91667 1.66667C6.91667 3.125 7.15 4.525 7.58167 5.83167C7.71 6.24 7.61667 6.695 7.29 7.02167L4.72333 9.58833Z" fill="#F89608"/>
</svg>
