<svg width="24" height="20" viewBox="0 0 24 20" fill="none" xmlns="http://www.w3.org/2000/svg">
<path d="M2.66683 19.3334C2.02516 19.3334 1.47566 19.1048 1.01833 18.6474C0.560998 18.1901 0.33272 17.641 0.333498 17.0001V3.00008C0.333498 2.35842 0.562165 1.80892 1.0195 1.35158C1.47683 0.89425 2.02594 0.665972 2.66683 0.66675H21.3335C21.9752 0.66675 22.5247 0.895416 22.982 1.35275C23.4393 1.81008 23.6676 2.35919 23.6668 3.00008V17.0001C23.6668 17.6418 23.4382 18.1913 22.9808 18.6486C22.5235 19.1059 21.9744 19.3342 21.3335 19.3334H2.66683ZM12.0002 11.1668L21.3335 5.33342V3.00008L12.0002 8.83342L2.66683 3.00008V5.33342L12.0002 11.1668Z" fill="#F89608"/>
</svg>
