<svg width="25" height="25" viewBox="0 0 25 25" fill="none" xmlns="http://www.w3.org/2000/svg">
<path d="M24.6949 23.2218L18.4772 17.0041C20.1716 14.9318 21.0047 12.2875 20.8041 9.61819C20.6036 6.94888 19.3847 4.45878 17.3997 2.66294C15.4147 0.867093 12.8153 -0.0970923 10.1393 -0.0301841C7.46336 0.036724 4.91545 1.12961 3.02265 3.02241C1.12985 4.91521 0.0369681 7.46311 -0.02994 10.1391C-0.0968481 12.8151 0.867337 15.4144 2.66318 17.3995C4.45902 19.3845 6.94913 20.6033 9.61843 20.8039C12.2877 21.0045 14.932 20.1714 17.0043 18.477L23.222 24.6947C23.4185 24.8844 23.6816 24.9894 23.9547 24.9871C24.2278 24.9847 24.4891 24.8751 24.6822 24.682C24.8754 24.4889 24.9849 24.2276 24.9873 23.9545C24.9897 23.6814 24.8847 23.4182 24.6949 23.2218ZM10.4168 18.7499C8.76863 18.7499 7.15746 18.2612 5.78705 17.3455C4.41664 16.4298 3.34854 15.1283 2.71781 13.6056C2.08708 12.0829 1.92205 10.4073 2.24359 8.79081C2.56514 7.1743 3.35881 5.68944 4.52425 4.524C5.68969 3.35857 7.17454 2.56489 8.79105 2.24335C10.4076 1.92181 12.0831 2.08683 13.6058 2.71757C15.1286 3.3483 16.43 4.4164 17.3457 5.78681C18.2614 7.15722 18.7501 8.76838 18.7501 10.4166C18.7477 12.6259 17.8689 14.7441 16.3066 16.3064C14.7444 17.8686 12.6262 18.7474 10.4168 18.7499Z" fill="#959595"/>
</svg>
