<svg width="24" height="24" viewBox="0 0 24 24" fill="none" xmlns="http://www.w3.org/2000/svg">
<g clip-path="url(#clip0_1_112)">
<path d="M0.293217 22.293L6.26222 16.324C4.6356 14.3346 3.83584 11.7961 4.02837 9.23359C4.22091 6.67106 5.391 4.28056 7.29663 2.55655C9.20226 0.832537 11.6976 -0.0930816 14.2666 -0.0288498C16.8355 0.035382 19.2815 1.08455 21.0986 2.90164C22.9157 4.71873 23.9649 7.16472 24.0291 9.73367C24.0933 12.3026 23.1677 14.798 21.4437 16.7036C19.7197 18.6092 17.3292 19.7793 14.7667 19.9719C12.2041 20.1644 9.66562 19.3646 7.67622 17.738L1.70722 23.707C1.51862 23.8892 1.26601 23.99 1.00382 23.9877C0.741619 23.9854 0.490807 23.8803 0.305399 23.6948C0.119991 23.5094 0.014822 23.2586 0.0125427 22.9964C0.0102634 22.7342 0.111059 22.4816 0.293217 22.293ZM14.0002 18C15.5825 18 17.1292 17.5308 18.4448 16.6518C19.7604 15.7727 20.7858 14.5233 21.3913 13.0615C21.9968 11.5997 22.1552 9.99115 21.8465 8.4393C21.5378 6.88746 20.7759 5.46199 19.6571 4.34317C18.5383 3.22435 17.1128 2.46243 15.5609 2.15374C14.0091 1.84506 12.4006 2.00349 10.9388 2.60899C9.47694 3.21449 8.22751 4.23987 7.34846 5.55546C6.46941 6.87106 6.00022 8.41778 6.00022 10C6.0026 12.121 6.84622 14.1545 8.34599 15.6542C9.84577 17.154 11.8792 17.9976 14.0002 18Z" fill="#959595"/>
</g>
<defs>
<clipPath id="clip0_1_112">
<rect width="24" height="24" fill="white" transform="matrix(-1 0 0 1 24 0)"/>
</clipPath>
</defs>
</svg>
